<svg width="7" height="14" viewBox="0 0 7 14" fill="none" xmlns="http://www.w3.org/2000/svg">
<path d="M1.16146 13.9999C1.31088 14.0004 1.45852 13.9675 1.59352 13.9034C1.72853 13.8394 1.84747 13.746 1.9416 13.63L6.77247 7.63053C6.91958 7.45162 7 7.2272 7 6.99559C7 6.76399 6.91958 6.53957 6.77247 6.36065L1.77157 0.361218C1.6018 0.15702 1.35785 0.028608 1.09337 0.00423058C0.828901 -0.0201469 0.565572 0.0615073 0.361319 0.23123C0.157066 0.400952 0.0286183 0.644841 0.00423423 0.909242C-0.0201498 1.17364 0.0615262 1.4369 0.231295 1.6411L4.7021 7.00059L0.381322 12.3601C0.259017 12.5069 0.181326 12.6856 0.157442 12.8751C0.133558 13.0646 0.16448 13.257 0.246551 13.4296C0.328622 13.6021 0.458405 13.7475 0.620545 13.8486C0.782684 13.9496 0.970393 14.0022 1.16146 13.9999Z" fill="white"/>
</svg>
