<svg width="7" height="14" viewBox="0 0 7 14" fill="none" xmlns="http://www.w3.org/2000/svg">
<path d="M1.74531 6.81703e-05C1.87979 -0.00044015 2.01267 0.0325293 2.13417 0.0965523C2.25567 0.160575 2.36272 0.254025 2.44744 0.370035L6.79522 6.36947C6.92762 6.54838 7 6.7728 7 7.00441C7 7.23601 6.92762 7.46043 6.79522 7.63935L2.29441 13.6388C2.14162 13.843 1.92206 13.9714 1.68404 13.9958C1.44601 14.0201 1.20901 13.9385 1.02519 13.7688C0.841359 13.599 0.725756 13.3552 0.70381 13.0908C0.681865 12.8264 0.755373 12.5631 0.908165 12.3589L4.93189 6.99941L1.04319 1.63991C0.933114 1.49314 0.863192 1.31442 0.841697 1.12489C0.820202 0.935357 0.848032 0.742951 0.921895 0.57044C0.995759 0.397929 1.11256 0.252531 1.25849 0.15145C1.40441 0.0503688 1.57335 -0.00216341 1.74531 6.81703e-05Z" fill="#DDA45C"/>
</svg>
