<svg width="17" height="16" viewBox="0 0 17 16" fill="none" xmlns="http://www.w3.org/2000/svg">
<path d="M0 2.09248C0 1.53752 0.220457 1.00529 0.612872 0.612872C1.00529 0.220457 1.53752 0 2.09248 0L14.6473 0C15.2023 0 15.7345 0.220457 16.1269 0.612872C16.5193 1.00529 16.7398 1.53752 16.7398 2.09248V10.4624C16.7398 11.0173 16.5193 11.5496 16.1269 11.942C15.7345 12.3344 15.2023 12.5549 14.6473 12.5549H4.61809C4.34064 12.5549 4.07456 12.6652 3.8784 12.8614L0.893487 15.8463C0.820387 15.9196 0.727189 15.9696 0.625688 15.9898C0.524187 16.0101 0.418947 15.9999 0.323287 15.9603C0.227627 15.9208 0.145848 15.8538 0.0882996 15.7677C0.0307516 15.6817 2.19866e-05 15.5805 0 15.477L0 2.09248ZM5.23119 6.27743C5.23119 5.99995 5.12096 5.73383 4.92475 5.53762C4.72854 5.34142 4.46243 5.23119 4.18495 5.23119C3.90747 5.23119 3.64136 5.34142 3.44515 5.53762C3.24894 5.73383 3.13871 5.99995 3.13871 6.27743C3.13871 6.5549 3.24894 6.82102 3.44515 7.01723C3.64136 7.21343 3.90747 7.32366 4.18495 7.32366C4.46243 7.32366 4.72854 7.21343 4.92475 7.01723C5.12096 6.82102 5.23119 6.5549 5.23119 6.27743ZM9.41614 6.27743C9.41614 5.99995 9.30591 5.73383 9.1097 5.53762C8.9135 5.34142 8.64738 5.23119 8.3699 5.23119C8.09242 5.23119 7.82631 5.34142 7.6301 5.53762C7.43389 5.73383 7.32366 5.99995 7.32366 6.27743C7.32366 6.5549 7.43389 6.82102 7.6301 7.01723C7.82631 7.21343 8.09242 7.32366 8.3699 7.32366C8.64738 7.32366 8.9135 7.21343 9.1097 7.01723C9.30591 6.82102 9.41614 6.5549 9.41614 6.27743ZM12.5549 7.32366C12.8323 7.32366 13.0984 7.21343 13.2947 7.01723C13.4909 6.82102 13.6011 6.5549 13.6011 6.27743C13.6011 5.99995 13.4909 5.73383 13.2947 5.53762C13.0984 5.34142 12.8323 5.23119 12.5549 5.23119C12.2774 5.23119 12.0113 5.34142 11.815 5.53762C11.6188 5.73383 11.5086 5.99995 11.5086 6.27743C11.5086 6.5549 11.6188 6.82102 11.815 7.01723C12.0113 7.21343 12.2774 7.32366 12.5549 7.32366Z" fill="#DDA45C"/>
</svg>
