<svg width="17" height="16" viewBox="0 0 17 16" fill="none" xmlns="http://www.w3.org/2000/svg">
<path d="M8.77534 5.3322C7.30635 5.3322 6.10754 6.53101 6.10754 8C6.10754 9.46899 7.30635 10.6678 8.77534 10.6678C10.2443 10.6678 11.4431 9.46899 11.4431 8C11.4431 6.53101 10.2443 5.3322 8.77534 5.3322ZM16.7767 8C16.7767 6.89525 16.7868 5.80051 16.7247 4.69777C16.6627 3.4169 16.3705 2.28014 15.4338 1.3435C14.4952 0.404868 13.3604 0.114672 12.0796 0.0526304C10.9748 -0.0094115 9.88009 0.000595291 8.77734 0.000595291C7.6726 0.000595291 6.57786 -0.0094115 5.47511 0.0526304C4.19425 0.114672 3.05748 0.40687 2.12085 1.3435C1.18221 2.28214 0.892016 3.4169 0.829974 4.69777C0.767932 5.80252 0.777939 6.89725 0.777939 8C0.777939 9.10275 0.767932 10.1995 0.829974 11.3022C0.892016 12.5831 1.18421 13.7199 2.12085 14.6565C3.05948 15.5951 4.19425 15.8853 5.47511 15.9474C6.57986 16.0094 7.6746 15.9994 8.77734 15.9994C9.88209 15.9994 10.9768 16.0094 12.0796 15.9474C13.3604 15.8853 14.4972 15.5931 15.4338 14.6565C16.3725 13.7179 16.6627 12.5831 16.7247 11.3022C16.7888 10.1995 16.7767 9.10475 16.7767 8ZM8.77534 12.1048C6.50381 12.1048 4.67057 10.2715 4.67057 8C4.67057 5.72847 6.50381 3.89523 8.77534 3.89523C11.0469 3.89523 12.8801 5.72847 12.8801 8C12.8801 10.2715 11.0469 12.1048 8.77534 12.1048ZM13.0482 4.68576C12.5179 4.68576 12.0896 4.25747 12.0896 3.72711C12.0896 3.19675 12.5179 2.76847 13.0482 2.76847C13.5786 2.76847 14.0069 3.19675 14.0069 3.72711C14.007 3.85305 13.9823 3.97778 13.9342 4.09416C13.8861 4.21054 13.8155 4.31628 13.7264 4.40533C13.6374 4.49438 13.5317 4.56499 13.4153 4.61311C13.2989 4.66123 13.1742 4.68592 13.0482 4.68576Z" fill="#DDA45C"/>
</svg>
