<svg width="17" height="16" viewBox="0 0 17 16" fill="none" xmlns="http://www.w3.org/2000/svg">
<path fill-rule="evenodd" clip-rule="evenodd" d="M6.27621 5.5752H9.24741V7.0552C9.67541 6.204 10.773 5.4392 12.4218 5.4392C15.5826 5.4392 16.333 7.1336 16.333 10.2424V16H13.133V10.9504C13.133 9.18 12.705 8.1816 11.6154 8.1816C10.1042 8.1816 9.47621 9.2576 9.47621 10.9496V16H6.27621V5.5752V5.5752ZM0.789008 15.864H3.98901V5.4392H0.789008V15.864V15.864ZM4.44741 2.04C4.44753 2.30822 4.39433 2.57379 4.29092 2.82127C4.1875 3.06875 4.03593 3.29321 3.84501 3.4816C3.45813 3.8661 2.93446 4.08132 2.38901 4.08C1.84452 4.07963 1.32206 3.86496 0.934608 3.4824C0.744377 3.29337 0.593316 3.06866 0.490083 2.82115C0.386849 2.57363 0.333471 2.30818 0.333008 2.04C0.333008 1.4984 0.549008 0.98 0.935408 0.5976C1.32252 0.214527 1.8452 -0.000239369 2.38981 2.00212e-07C2.93541 2.00212e-07 3.45861 0.2152 3.84501 0.5976C4.23061 0.98 4.44741 1.4984 4.44741 2.04Z" fill="#DDA45C"/>
</svg>
