<svg width="168" height="62" viewBox="0 0 168 62" fill="none" xmlns="http://www.w3.org/2000/svg">
<path fill-rule="evenodd" clip-rule="evenodd" d="M30.7996 0C47.807 0 61.5991 13.8819 61.5991 31C61.5991 48.1181 47.807 62 30.7996 62C13.7928 62 0 48.1181 0 31C0 13.8819 13.7928 0 30.7996 0Z" fill="#DDA45C"/>
<path fill-rule="evenodd" clip-rule="evenodd" d="M30.7996 4.03425C45.5936 4.03425 57.5916 16.1097 57.5916 31C57.5916 45.8903 45.5936 57.9663 30.7996 57.9663C16.0055 57.9663 4.00757 45.8903 4.00757 31C4.00757 16.1097 16.0055 4.03425 30.7996 4.03425ZM30.7996 2.4806C46.4464 2.4806 59.1346 15.252 59.1346 31C59.1346 46.7486 46.4464 59.5194 30.7996 59.5194C15.1534 59.5194 2.46458 46.7486 2.46458 31C2.46458 15.252 15.1534 2.4806 30.7996 2.4806Z" fill="white"/>
<path fill-rule="evenodd" clip-rule="evenodd" d="M19.7147 11.2378L30.6842 17.3716L41.5782 11.2378L44.7016 24.3484L37.0072 20.8217L44.9088 50.7276L35.4781 50.7263L30.837 20.2077L26.1899 50.7245L16.7447 50.7233L24.8945 20.5664L16.6903 24.3222L19.7147 11.2378Z" fill="white"/>
<path d="M82.0266 34.8814H76.9051L76.0251 37.3968H73.9307L78.313 25.0677H80.6362L85.0185 37.3968H82.9066L82.0266 34.8814ZM81.4634 33.234L79.4746 27.5123L77.4683 33.234H81.4634Z" fill="#1C1C23"/>
<path d="M90.9191 25.0854C92.2215 25.0854 93.3596 25.3393 94.3335 25.8471C95.3191 26.3431 96.0759 27.0635 96.6039 28.0083C97.1436 28.9412 97.4134 30.0336 97.4134 31.2854C97.4134 32.5372 97.1436 33.6237 96.6039 34.5448C96.0759 35.466 95.3191 36.1745 94.3335 36.6705C93.3596 37.1547 92.2215 37.3968 90.9191 37.3968H86.924V25.0854H90.9191ZM90.9191 35.7494C92.3506 35.7494 93.4476 35.3597 94.2103 34.5803C94.9729 33.8008 95.3543 32.7025 95.3543 31.2854C95.3543 29.8564 94.9729 28.7404 94.2103 27.9374C93.4476 27.1343 92.3506 26.7328 90.9191 26.7328H88.9304V35.7494H90.9191Z" fill="#1C1C23"/>
<path d="M109.944 25.0854L105.351 37.3968H103.027L98.4164 25.0854H100.564L104.189 35.3243L107.832 25.0854H109.944Z" fill="#1C1C23"/>
<path d="M117.201 37.5208C116.063 37.5208 115.013 37.2551 114.051 36.7237C113.1 36.1804 112.344 35.4305 111.78 34.474C111.229 33.5056 110.953 32.4191 110.953 31.2145C110.953 30.01 111.229 28.9294 111.78 27.9728C112.344 27.0163 113.1 26.2723 114.051 25.7408C115.013 25.1976 116.063 24.926 117.201 24.926C118.351 24.926 119.401 25.1976 120.352 25.7408C121.314 26.2723 122.07 27.0163 122.622 27.9728C123.173 28.9294 123.449 30.01 123.449 31.2145C123.449 32.4191 123.173 33.5056 122.622 34.474C122.07 35.4305 121.314 36.1804 120.352 36.7237C119.401 37.2551 118.351 37.5208 117.201 37.5208ZM117.201 35.7671C118.011 35.7671 118.732 35.5841 119.366 35.218C120 34.8401 120.492 34.3086 120.844 33.6237C121.208 32.9269 121.39 32.1239 121.39 31.2145C121.39 30.3052 121.208 29.5081 120.844 28.8231C120.492 28.1382 120 27.6126 119.366 27.2465C118.732 26.8804 118.011 26.6974 117.201 26.6974C116.392 26.6974 115.67 26.8804 115.036 27.2465C114.403 27.6126 113.904 28.1382 113.54 28.8231C113.188 29.5081 113.012 30.3052 113.012 31.2145C113.012 32.1239 113.188 32.9269 113.54 33.6237C113.904 34.3086 114.403 34.8401 115.036 35.218C115.67 35.5841 116.392 35.7671 117.201 35.7671Z" fill="#1C1C23"/>
<path d="M124.755 31.2145C124.755 30.01 125.03 28.9294 125.582 27.9728C126.145 27.0163 126.902 26.2723 127.852 25.7408C128.814 25.1976 129.864 24.926 131.003 24.926C132.305 24.926 133.461 25.2507 134.47 25.9003C135.491 26.538 136.23 27.4473 136.687 28.6283H134.276C133.959 27.9787 133.519 27.4945 132.956 27.1757C132.393 26.8568 131.742 26.6974 131.003 26.6974C130.193 26.6974 129.471 26.8804 128.838 27.2465C128.204 27.6126 127.706 28.1382 127.342 28.8231C126.99 29.5081 126.814 30.3052 126.814 31.2145C126.814 32.1239 126.99 32.921 127.342 33.606C127.706 34.2909 128.204 34.8223 128.838 35.2003C129.471 35.5663 130.193 35.7494 131.003 35.7494C131.742 35.7494 132.393 35.59 132.956 35.2711C133.519 34.9523 133.959 34.4681 134.276 33.8185H136.687C136.23 34.9995 135.491 35.9088 134.47 36.5465C133.461 37.1843 132.305 37.5031 131.003 37.5031C129.853 37.5031 128.803 37.2374 127.852 36.706C126.902 36.1627 126.145 35.4128 125.582 34.4563C125.03 33.4997 124.755 32.4191 124.755 31.2145Z" fill="#1C1C23"/>
<path d="M146.41 34.8814H141.289L140.409 37.3968H138.314L142.697 25.0677H145.02L149.402 37.3968H147.29L146.41 34.8814ZM145.847 33.234L143.858 27.5123L141.852 33.234H145.847Z" fill="#1C1C23"/>
<path d="M159.21 25.0854V26.7328H155.954V37.3968H153.947V26.7328H150.674V25.0854H159.21Z" fill="#1C1C23"/>
<path d="M163.248 26.7151V30.3288H167.472V31.9763H163.248V35.7494H168V37.3968H161.242V25.0677H168V26.7151H163.248Z" fill="#1C1C23"/>
</svg>
