<svg width="207" height="76" viewBox="0 0 207 76" fill="none" xmlns="http://www.w3.org/2000/svg">
<g opacity="0.9">
<path fill-rule="evenodd" clip-rule="evenodd" d="M37.9495 0C58.905 0 75.8989 17.0166 75.8989 38C75.8989 58.9835 58.905 76 37.9495 76C16.9947 76 0 58.9835 0 38C0 17.0166 16.9947 0 37.9495 0Z" fill="#1B1918"/>
<path fill-rule="evenodd" clip-rule="evenodd" d="M37.9495 4.94521C56.1779 4.94521 70.9611 19.7473 70.9611 38C70.9611 56.2527 56.1779 71.0555 37.9495 71.0555C19.7211 71.0555 4.9379 56.2527 4.9379 38C4.9379 19.7473 19.7211 4.94521 37.9495 4.94521ZM37.9495 3.04074C57.2286 3.04074 72.8622 18.696 72.8622 38C72.8622 57.3047 57.2286 72.9593 37.9495 72.9593C18.6711 72.9593 3.03671 57.3047 3.03671 38C3.03671 18.696 18.6711 3.04074 37.9495 3.04074Z" fill="#DDA45C"/>
<path fill-rule="evenodd" clip-rule="evenodd" d="M24.2914 13.7754L37.8073 21.2942L51.2303 13.7754L55.0788 29.8464L45.5981 25.5233L55.334 62.1822L43.7141 62.1807L37.9956 24.7708L32.2697 62.1784L20.6318 62.1769L30.6736 25.2104L20.5649 29.8144L24.2914 13.7754Z" fill="#DDA45C"/>
<path d="M101.068 42.7578H94.758L93.6737 45.8413H91.0932L96.4928 30.7281H99.3553L104.755 45.8413H102.153L101.068 42.7578ZM100.375 40.7384L97.9241 33.7247L95.452 40.7384H100.375Z" fill="#DDA45C"/>
<path d="M112.025 30.7498C113.63 30.7498 115.032 31.0611 116.232 31.6836C117.447 32.2916 118.379 33.1746 119.03 34.3327C119.695 35.4763 120.027 36.8154 120.027 38.3498C120.027 39.8843 119.695 41.2161 119.03 42.3453C118.379 43.4744 117.447 44.343 116.232 44.951C115.032 45.5445 113.63 45.8413 112.025 45.8413H107.103V30.7498H112.025ZM112.025 43.8218C113.789 43.8218 115.141 43.3441 116.081 42.3887C117.02 41.4333 117.49 40.087 117.49 38.3498C117.49 36.5982 117.02 35.2302 116.081 34.2458C115.141 33.2615 113.789 32.7693 112.025 32.7693H109.575V43.8218H112.025Z" fill="#DDA45C"/>
<path d="M135.467 30.7498L129.807 45.8413H126.945L121.263 30.7498H123.909L128.376 43.3007L132.865 30.7498H135.467Z" fill="#DDA45C"/>
<path d="M144.409 45.9933C143.006 45.9933 141.712 45.6676 140.527 45.0161C139.356 44.3502 138.423 43.431 137.73 42.2584C137.05 41.0714 136.71 39.7396 136.71 38.263C136.71 36.7864 137.05 35.4618 137.73 34.2893C138.423 33.1167 139.356 32.2047 140.527 31.5533C141.712 30.8874 143.006 30.5544 144.409 30.5544C145.825 30.5544 147.119 30.8874 148.29 31.5533C149.476 32.2047 150.408 33.1167 151.088 34.2893C151.767 35.4618 152.107 36.7864 152.107 38.263C152.107 39.7396 151.767 41.0714 151.088 42.2584C150.408 43.431 149.476 44.3502 148.29 45.0161C147.119 45.6676 145.825 45.9933 144.409 45.9933ZM144.409 43.8436C145.406 43.8436 146.295 43.6192 147.076 43.1704C147.857 42.7072 148.464 42.0557 148.897 41.2161C149.346 40.362 149.57 39.3777 149.57 38.263C149.57 37.1483 149.346 36.1712 148.897 35.3316C148.464 34.4919 147.857 33.8477 147.076 33.399C146.295 32.9502 145.406 32.7258 144.409 32.7258C143.411 32.7258 142.522 32.9502 141.741 33.399C140.961 33.8477 140.346 34.4919 139.898 35.3316C139.464 36.1712 139.247 37.1483 139.247 38.263C139.247 39.3777 139.464 40.362 139.898 41.2161C140.346 42.0557 140.961 42.7072 141.741 43.1704C142.522 43.6192 143.411 43.8436 144.409 43.8436Z" fill="#DDA45C"/>
<path d="M153.716 38.263C153.716 36.7864 154.055 35.4618 154.735 34.2893C155.429 33.1167 156.361 32.2047 157.532 31.5533C158.718 30.8874 160.012 30.5544 161.414 30.5544C163.019 30.5544 164.443 30.9525 165.686 31.7487C166.944 32.5304 167.854 33.6451 168.418 35.0927H165.447C165.057 34.2965 164.515 33.703 163.821 33.3121C163.127 32.9213 162.325 32.7258 161.414 32.7258C160.416 32.7258 159.527 32.9502 158.747 33.399C157.966 33.8477 157.351 34.4919 156.903 35.3316C156.47 36.1712 156.253 37.1483 156.253 38.263C156.253 39.3777 156.47 40.3548 156.903 41.1944C157.351 42.034 157.966 42.6855 158.747 43.1487C159.527 43.5975 160.416 43.8218 161.414 43.8218C162.325 43.8218 163.127 43.6264 163.821 43.2356C164.515 42.8447 165.057 42.2512 165.447 41.455H168.418C167.854 42.9026 166.944 44.0173 165.686 44.799C164.443 45.5807 163.019 45.9716 161.414 45.9716C159.997 45.9716 158.703 45.6458 157.532 44.9944C156.361 44.3285 155.429 43.4093 154.735 42.2367C154.055 41.0641 153.716 39.7396 153.716 38.263Z" fill="#DDA45C"/>
<path d="M180.398 42.7578H174.088L173.003 45.8413H170.423L175.822 30.7281H178.685L184.085 45.8413H181.482L180.398 42.7578ZM179.704 40.7384L177.254 33.7247L174.782 40.7384H179.704Z" fill="#DDA45C"/>
<path d="M196.169 30.7498V32.7693H192.157V45.8413H189.685V32.7693H185.652V30.7498H196.169Z" fill="#DDA45C"/>
<path d="M201.145 32.7476V37.1773H206.349V39.1967H201.145V43.8218H207V45.8413H198.673V30.7281H207V32.7476H201.145Z" fill="#DDA45C"/>
</g>
</svg>
