<svg width="18" height="30" viewBox="0 0 18 30" fill="none" xmlns="http://www.w3.org/2000/svg">
<path d="M1.4354 0.785123C1.67894 0.536242 1.96821 0.33879 2.28667 0.204068C2.60513 0.0693461 2.94651 0 3.29128 0C3.63605 0 3.97744 0.0693461 4.29589 0.204068C4.61435 0.33879 4.90363 0.536242 5.14717 0.785123L17.2302 13.1079C17.4742 13.3562 17.6678 13.6512 17.7999 13.976C17.932 14.3008 18 14.649 18 15.0006C18 15.3522 17.932 15.7003 17.7999 16.0251C17.6678 16.3499 17.4742 16.6449 17.2302 16.8933L5.14717 29.216C4.90345 29.4646 4.61411 29.6617 4.29568 29.7962C3.97725 29.9308 3.63595 30 3.29128 30C2.94661 30 2.60532 29.9308 2.28689 29.7962C1.96845 29.6617 1.67912 29.4646 1.4354 29.216C1.19168 28.9675 0.998352 28.6724 0.866453 28.3476C0.734552 28.0229 0.666666 27.6748 0.666666 27.3233C0.666666 26.9718 0.734552 26.6237 0.866453 26.299C0.998352 25.9742 1.19168 25.6792 1.4354 25.4306L11.6493 14.9871L1.4354 4.57054C0.435064 3.52351 0.435064 1.80531 1.4354 0.785123Z" fill="#A3A3A3"/>
</svg>
