<svg width="18" height="30" viewBox="0 0 18 30" fill="none" xmlns="http://www.w3.org/2000/svg">
<path d="M16.5646 0.785123C16.3211 0.536242 16.0318 0.33879 15.7133 0.204068C15.3949 0.0693461 15.0535 0 14.7087 0C14.3639 0 14.0226 0.0693461 13.7041 0.204068C13.3857 0.33879 13.0964 0.536242 12.8528 0.785123L0.769847 13.1079C0.525809 13.3562 0.332198 13.6512 0.200098 13.976C0.0679969 14.3008 0 14.649 0 15.0006C0 15.3522 0.0679969 15.7003 0.200098 16.0251C0.332198 16.3499 0.525809 16.6449 0.769847 16.8933L12.8528 29.216C13.0966 29.4646 13.3859 29.6617 13.7043 29.7962C14.0228 29.9308 14.364 30 14.7087 30C15.0534 30 15.3947 29.9308 15.7131 29.7962C16.0315 29.6617 16.3209 29.4646 16.5646 29.216C16.8083 28.9675 17.0016 28.6724 17.1335 28.3476C17.2654 28.0229 17.3333 27.6748 17.3333 27.3233C17.3333 26.9718 17.2654 26.6237 17.1335 26.299C17.0016 25.9742 16.8083 25.6792 16.5646 25.4306L6.35066 14.9871L16.5646 4.57054C17.5649 3.52351 17.5649 1.80531 16.5646 0.785123Z" fill="#A3A3A3"/>
</svg>
