<svg width="34" height="26" viewBox="0 0 34 26" fill="none" xmlns="http://www.w3.org/2000/svg">
<path d="M30.9814 2.24128C32.9455 4.32098 34 6.65351 34 10.4346C34 17.0881 29.3148 23.0515 22.5014 26L20.7985 23.3804C27.158 19.951 28.4013 15.5008 28.8971 12.6949C27.8731 13.2234 26.5326 13.4078 25.2187 13.2861C21.7787 12.9686 19.0671 10.1532 19.0671 6.65351C19.0671 4.88889 19.7702 3.19654 21.0219 1.94877C22.2735 0.700993 23.9711 0 25.7412 0C27.7873 0 29.7438 0.931491 30.9814 2.24128ZM11.9124 2.24128C13.8765 4.32098 14.931 6.65351 14.931 10.4346C14.931 17.0881 10.2458 23.0515 3.43242 26L1.72956 23.3804C8.08906 19.951 9.33236 15.5008 9.82816 12.6949C8.80415 13.2234 7.4636 13.4078 6.14975 13.2861C2.7097 12.9686 0 10.1532 0 6.65351C0 4.88889 0.703166 3.19654 1.95481 1.94877C3.20646 0.700993 4.90405 0 6.67414 0C8.72025 0 10.6767 0.931491 11.9143 2.24128H11.9124Z" fill="#DDA45C"/>
</svg>
