<svg width="35" height="35" viewBox="0 0 35 35" fill="none" xmlns="http://www.w3.org/2000/svg">
<path fill-rule="evenodd" clip-rule="evenodd" d="M28.2071 28.333C31.0707 25.5028 32.6928 21.651 32.7165 17.6248C32.7401 13.5986 31.1634 9.72797 28.3332 6.86431C25.503 4.00065 21.6511 2.37857 17.625 2.35492C13.5988 2.33126 9.72814 3.90795 6.86448 6.73816C4.00082 9.56836 2.37875 13.4202 2.35509 17.4464C2.33143 21.4726 3.90813 25.3432 6.73833 28.2069C9.56854 31.0705 13.4204 32.6926 17.4466 32.7163C21.4727 32.7399 25.3434 31.1632 28.2071 28.333ZM5.34001 5.19567C8.61277 1.96115 13.0364 0.159204 17.6377 0.186242C22.2391 0.213279 26.6412 2.06708 29.8757 5.33984C33.1102 8.61259 34.9122 13.0362 34.8851 17.6375C34.8581 22.2389 33.0043 26.641 29.7315 29.8755C26.4588 33.11 22.0352 34.912 17.4338 34.885C12.8325 34.8579 8.43036 33.0041 5.19584 29.7314C1.96133 26.4586 0.159381 22.035 0.186419 17.4337C0.213456 12.8323 2.06726 8.43018 5.34001 5.19567ZM9.93821 18.6534C9.65047 18.6515 9.37527 18.5354 9.17314 18.3306C8.97102 18.1257 8.85853 17.849 8.86042 17.5613C8.86232 17.2736 8.97844 16.9984 9.18324 16.7962C9.38805 16.5941 9.66476 16.4816 9.9525 16.4835L22.5148 16.5573L18.295 12.2877C18.0929 12.0832 17.9803 11.8067 17.982 11.5191C17.9836 11.2315 18.0995 10.9564 18.304 10.7542C18.5086 10.5521 18.7851 10.4394 19.0727 10.4411C19.3602 10.4428 19.6354 10.5587 19.8375 10.7632L25.8973 16.8946C26.0995 17.0992 26.2121 17.3757 26.2104 17.6632C26.2087 17.9508 26.0928 18.226 25.8883 18.4281L19.7569 24.4879C19.5523 24.69 19.2759 24.8027 18.9883 24.801C18.7007 24.7993 18.4256 24.6834 18.2234 24.4789C18.0212 24.2743 17.9086 23.9979 17.9103 23.7103C17.912 23.4227 18.0279 23.1476 18.2324 22.9454L22.502 18.7257L9.93821 18.6534Z" fill="#DDA45C"/>
</svg>
