<svg width="19" height="16" viewBox="0 0 19 16" fill="none" xmlns="http://www.w3.org/2000/svg">
<path d="M18.1619 2.57593C17.5185 2.86101 16.8274 3.05364 16.1008 3.14071C16.8505 2.69212 17.4114 1.98609 17.6788 1.15437C16.9744 1.57274 16.2035 1.86723 15.3996 2.02503C14.8591 1.44782 14.143 1.06524 13.3627 0.936681C12.5824 0.808122 11.7815 0.940778 11.0843 1.31405C10.3871 1.68733 9.83264 2.28034 9.50701 3.00102C9.18138 3.72169 9.10279 4.52972 9.28345 5.29963C7.85625 5.22798 6.46006 4.85702 5.18551 4.21085C3.91095 3.56468 2.7865 2.65773 1.88515 1.54886C1.57695 2.0805 1.39973 2.6969 1.39973 3.35336C1.39939 3.94433 1.54492 4.52624 1.82341 5.04748C2.10191 5.56871 2.50475 6.01314 2.9962 6.34135C2.42625 6.32321 1.86887 6.1692 1.37046 5.89215V5.93838C1.3704 6.76723 1.6571 7.57058 2.18193 8.21211C2.70675 8.85364 3.43737 9.29383 4.2498 9.458C3.72107 9.6011 3.16674 9.62217 2.62867 9.51964C2.8579 10.2328 3.3044 10.8565 3.90567 11.3033C4.50694 11.7501 5.23289 11.9977 5.98187 12.0114C4.71043 13.0095 3.1402 13.5509 1.52378 13.5486C1.23745 13.5486 0.951364 13.5319 0.666992 13.4985C2.30774 14.5534 4.2177 15.1133 6.16833 15.1111C12.7715 15.1111 16.3813 9.64215 16.3813 4.89898C16.3813 4.74488 16.3774 4.58924 16.3705 4.43514C17.0726 3.92736 17.6787 3.29858 18.1603 2.57824L18.1619 2.57593Z" fill="#DDA45C"/>
</svg>
